# xmcd CD database file
#
# Track frame offsets:
#	150
#	13642
#	26797
#	39472
#	52695
#	66416
#	79841
#	93574
#	107260
#	120791
#	134196
#	147856
#	161283
#	175850
#	189545
#	202664
#	216512
#	229553
#	243097
#	255952
#	268352
#	281742
#	293799
#	305884
#	317505
#
# Disc length: 4388 seconds
#
# Revision: 0
# Processed by: cddbd v1.5.2PL0 Copyright (c) Steve Scherf et al.
# Submitted via: CDex 1.40PlusFr
#
DISCID=5f112219
DTITLE=Ti-Blanc Richard - Les Grands Du Country
DYEAR=1900
DGENRE=Country
TTITLE0=Piste 1
TTITLE1=Piste 2
TTITLE2=Piste 3
TTITLE3=Piste 4
TTITLE4=Piste 5
TTITLE5=Piste 6
TTITLE6=Piste 7
TTITLE7=Piste 8
TTITLE8=Piste 9
TTITLE9=Piste 10
TTITLE10=Piste 11
TTITLE11=Piste 12
TTITLE12=Piano Sonata No. 13 Op. 27 No.
TTITLE13=Piste 14
TTITLE14=Piste 15
TTITLE15=Piste 16
TTITLE16=Piste 17
TTITLE17=Piste 18
TTITLE18=Piste 19
TTITLE19=Piste 01
TTITLE20=Piste 21
TTITLE21=Piste 22
TTITLE22=Piste 23
TTITLE23=Piste 24
TTITLE24=Piste 25
EXTD=ID3G: 2
EXTT0=
EXTT1=
EXTT2=
EXTT3=
EXTT4=
EXTT5=
EXTT6=
EXTT7=
EXTT8=
EXTT9=
EXTT10=
EXTT11=
EXTT12=
EXTT13=
EXTT14=
EXTT15=
EXTT16=
EXTT17=
EXTT18=
EXTT19=
EXTT20=
EXTT21=
EXTT22=
EXTT23=
EXTT24=
PLAYORDER=
